<svg id="Ebene_1" data-name="Ebene 1" xmlns="http://www.w3.org/2000/svg" viewBox="0 0 262 44.14"><path d="M1200.17,589.7a3.68,3.68,0,0,0-.32-.37q-7.57-7.58-15.16-15.14l-5.46-5.42-.4-.42.39-.42,16.45-16.37a1.06,1.06,0,0,1,.65-.3c3.43,0,6.86,0,10.29,0h.28l-17.17,17.14a5.11,5.11,0,0,1,.58.4l20.42,20.39a2,2,0,0,1,.26.51Z" transform="translate(-1091.97 -545.57)" style="fill:#2e7ba5"></path><path d="M1345.53,570.47a5.31,5.31,0,0,0-.58.42c-3.28,3.27-6.57,6.53-9.84,9.82-1.18,1.19-2.25,2.49-3.47,3.64a19.16,19.16,0,0,1-26.59-.36,18.19,18.19,0,0,1-5.51-11.44,18.5,18.5,0,0,1,5.55-15.63,19.11,19.11,0,0,1,28.05,1.2c.41.48.84.94,1.28,1.39l10.52,10.5A7,7,0,0,0,1345.53,570.47Zm-24.13,0,6.5-6.48a11.45,11.45,0,0,0-20.85,6.56,11.52,11.52,0,0,0,8.86,11.1,11.34,11.34,0,0,0,12-4.68Zm8.53,0a3.39,3.39,0,1,0,3.4-3.39A3.4,3.4,0,0,0,1329.93,570.42Z" transform="translate(-1091.97 -545.57)" style="fill:#2e7ba5"></path><path d="M1130,551.45v7.74h-30.36v.66c0,3.39.06,6.79,0,10.18a11.28,11.28,0,0,0,2.44,7.51,11.16,11.16,0,0,0,9.06,4.4c6.06,0,12.13,0,18.19,0h.53v7.57c-.17,0-.35,0-.53,0-6.13,0-12.26,0-18.39,0a19,19,0,0,1-18.6-15.5,20,20,0,0,1-.35-3.78c0-6.06,0-12.11,0-18.16,0-.62,0-.66.67-.66H1130Z" transform="translate(-1091.97 -545.57)" style="fill:#2e7ba5"></path><path d="M1298.43,551.15v7.72h-30.36v11.54a11.52,11.52,0,0,0,9.71,11.05,19.24,19.24,0,0,0,2.28.12h17.88l.35,0v7.61h-.54c-5.86,0-11.72,0-17.58,0a19.09,19.09,0,0,1-13.73-5.21,18.43,18.43,0,0,1-5.82-11.28,24.26,24.26,0,0,1-.2-3.3c0-5.88,0-11.76,0-17.65,0-.48.15-.66.62-.66h37.15Z" transform="translate(-1091.97 -545.57)" style="fill:#2e7ba5"></path><path d="M1223,551.67v.65q0,9.13,0,18.26a11.57,11.57,0,0,0,23.13-.32q0-9.1,0-18.21v-.38h7.65v.51c0,5.88,0,11.77,0,17.65a19.21,19.21,0,0,1-38,4.33,23.58,23.58,0,0,1-.39-4.19c0-6,0-12,0-18v-.34Z" transform="translate(-1091.97 -545.57)" style="fill:#2e7ba5"></path><path d="M1167,551.65h7.62v.54q0,9.25,0,18.51a19.2,19.2,0,0,1-36.21,8.51,17.63,17.63,0,0,1-2.14-8.29c0-6.25,0-12.51,0-18.76,0-.15,0-.3,0-.49h7.58v18.56a11.6,11.6,0,0,0,23.1,1.55,17.22,17.22,0,0,0,.07-2c0-5.8,0-11.6,0-17.4Z" transform="translate(-1091.97 -545.57)" style="fill:#2e7ba5"></path><path d="M1346.25,551.53H1354V589.2h-7.72Z" transform="translate(-1091.97 -545.57)" style="fill:#2e7ba5"></path><path d="M1346,547.14a1.61,1.61,0,1,1,1.58,1.65A1.61,1.61,0,0,1,1346,547.14Z" transform="translate(-1091.97 -545.57)" style="fill:#2e7ba5"></path><path d="M1334.87,570.43a1.59,1.59,0,0,1-1.59,1.62,1.6,1.6,0,0,1,0-3.2A1.58,1.58,0,0,1,1334.87,570.43Z" transform="translate(-1091.97 -545.57)" style="fill:#2e7ba5"></path></svg>
