<svg width="869" height="150" viewBox="0 0 869 150" fill="none" xmlns="http://www.w3.org/2000/svg">
<path fill-rule="evenodd" clip-rule="evenodd" d="M148.043 85.6327C149.203 84.474 149.081 82.5614 148.043 81.5245C145.02 77.9786 130.924 61.4884 107.615 39.6856C81.545 15.3009 42.4603 15.4479 18.1973 39.6856C-6.06576 63.9233 -6.06576 103.22 18.1973 127.458C42.4603 151.696 77.2736 156.498 107.615 127.458C134.282 101.935 145.399 88.7847 148.043 85.6327ZM88.024 109.233C102.211 95.0606 102.211 72.0832 88.024 57.9112C73.8372 43.7392 50.8359 43.7392 36.6491 57.9112C22.4622 72.0832 22.4622 95.0606 36.6491 109.233C50.8359 123.405 73.8372 123.405 88.024 109.233Z" fill="white"/>
<circle cx="62.2255" cy="84.4648" r="50.4102" fill="black" stroke="white" stroke-width="11.0272"/>
<circle cx="77.5844" cy="84.071" r="34.2632" stroke="white" stroke-width="17.3285"/>
<circle cx="93.7316" cy="84.4648" r="18.1162" fill="black" stroke="white" stroke-width="12.6025"/>
<path d="M250.807 149.167C240.432 149.167 232.392 146.379 226.686 140.803C220.98 135.226 218.127 127.251 218.127 116.876V22.3385H236.801V116.098C236.801 121.675 238.163 125.954 240.886 128.937C243.739 131.919 247.759 133.411 252.947 133.411C258.782 133.411 263.645 131.79 267.536 128.548L273.371 141.97C270.518 144.434 267.082 146.249 263.062 147.416C259.171 148.584 255.086 149.167 250.807 149.167ZM200.62 60.2704V44.9031H266.369V60.2704H200.62ZM331.546 149.167C322.727 149.167 314.946 147.546 308.203 144.304C301.589 141.062 296.402 136.134 292.641 129.52C289.01 122.777 287.195 114.348 287.195 104.232V44.9031H305.869V102.093C305.869 112.208 308.268 119.794 313.066 124.852C317.994 129.909 324.867 132.438 333.685 132.438C340.17 132.438 345.811 131.141 350.609 128.548C355.407 125.824 359.103 121.934 361.697 116.876C364.29 111.689 365.587 105.464 365.587 98.2023V44.9031H384.261V148H366.56V120.183L369.478 127.575C366.106 134.448 361.048 139.765 354.305 143.526C347.561 147.287 339.975 149.167 331.546 149.167ZM427.204 123.101L427.593 99.1749L486.922 44.9031H509.487L463.968 89.6433L453.853 98.2023L427.204 123.101ZM412.031 148V3.66435H430.705V148H412.031ZM490.813 148L450.352 97.8132L462.412 82.835L513.766 148H490.813ZM565.596 149.167C556.777 149.167 548.996 147.546 542.253 144.304C535.639 141.062 530.452 136.134 526.691 129.52C523.06 122.777 521.245 114.348 521.245 104.232V44.9031H539.919V102.093C539.919 112.208 542.318 119.794 547.116 124.852C552.044 129.909 558.917 132.438 567.735 132.438C574.22 132.438 579.861 131.141 584.659 128.548C589.457 125.824 593.153 121.934 595.747 116.876C598.34 111.689 599.637 105.464 599.637 98.2023V44.9031H618.311V148H600.61V120.183L603.528 127.575C600.156 134.448 595.098 139.765 588.355 143.526C581.611 147.287 574.025 149.167 565.596 149.167ZM681.484 149.167C671.109 149.167 663.069 146.379 657.363 140.803C651.657 135.226 648.804 127.251 648.804 116.876V22.3385H667.478V116.098C667.478 121.675 668.84 125.954 671.563 128.937C674.416 131.919 678.436 133.411 683.624 133.411C689.459 133.411 694.322 131.79 698.213 128.548L704.049 141.97C701.196 144.434 697.759 146.249 693.739 147.416C689.848 148.584 685.763 149.167 681.484 149.167ZM631.297 60.2704V44.9031H697.046V60.2704H631.297ZM759.582 149.167C749.207 149.167 740 146.898 731.96 142.359C723.919 137.82 717.565 131.595 712.896 123.685C708.228 115.644 705.894 106.567 705.894 96.4516C705.894 86.2067 708.228 77.129 712.896 69.2184C717.565 61.3078 723.919 55.148 731.96 50.7388C740 46.1999 749.207 43.9305 759.582 43.9305C769.827 43.9305 778.969 46.1999 787.009 50.7388C795.179 55.148 801.534 61.3078 806.073 69.2184C810.741 76.9993 813.075 86.077 813.075 96.4516C813.075 106.696 810.741 115.774 806.073 123.685C801.534 131.595 795.179 137.82 787.009 142.359C778.969 146.898 769.827 149.167 759.582 149.167ZM759.582 132.827C766.195 132.827 772.096 131.336 777.283 128.353C782.6 125.371 786.75 121.156 789.733 115.709C792.715 110.133 794.207 103.714 794.207 96.4516C794.207 89.0597 792.715 82.7053 789.733 77.3884C786.75 71.9417 782.6 67.7271 777.283 64.7444C772.096 61.7617 766.195 60.2704 759.582 60.2704C752.968 60.2704 747.067 61.7617 741.88 64.7444C736.693 67.7271 732.543 71.9417 729.431 77.3884C726.318 82.7053 724.762 89.0597 724.762 96.4516C724.762 103.714 726.318 110.133 729.431 115.709C732.543 121.156 736.693 125.371 741.88 128.353C747.067 131.336 752.968 132.827 759.582 132.827ZM831.12 148V44.9031H849.795V148H831.12ZM840.457 25.0618C836.826 25.0618 833.779 23.8947 831.315 21.5604C828.981 19.2261 827.813 16.3731 827.813 13.0014C827.813 9.50003 828.981 6.58219 831.315 4.24792C833.779 1.91365 836.826 0.746515 840.457 0.746515C844.089 0.746515 847.071 1.91365 849.405 4.24792C851.869 6.4525 853.101 9.24066 853.101 12.6124C853.101 16.1138 851.934 19.0965 849.6 21.5604C847.266 23.8947 844.218 25.0618 840.457 25.0618Z" fill="white"/>
</svg>
